# xmcd CD database file
#
# Track frame offsets:
#	150
#	34684
#	67287
#	102535
#	122065
#	156960
#	176648
#	217950
#	235364
#	291030
#
# Disc length: 4502 seconds
#
# Revision: 0
# Processed by: cddbd v1.5.2PL0 Copyright (c) Steve Scherf et al.
# Submitted via: CDex 1.51
#
DISCID=9611940a
DTITLE=Marsalis, Wynton and Eric Clapton - Wynton Marsalis and Eric Clapton Play the Blues
DYEAR=2011
DGENRE=Blues
TTITLE0=Ice Cream
TTITLE1=Forty-four
TTITLE2=Joe Turner's Blues
TTITLE3=The Last Time
TTITLE4=Careless Love
TTITLE5=Kidman Blues
TTITLE6=Layla
TTITLE7=Joliet Bound
TTITLE8=Just A Closer Walk With Thee (feat. Taj Mahal)
TTITLE9=Corrine Corinna (feat. Taj Mahal)
EXTD=YEAR: 2011
EXTT0=
EXTT1=
EXTT2=
EXTT3=
EXTT4=
EXTT5=
EXTT6=
EXTT7=
EXTT8=
EXTT9=
PLAYORDER=
